<?xml version="1.0" encoding="UTF-8"?><svg id="uuid-26d2f9bc-0eaa-4a59-a15f-47e4e3bb6b09" xmlns="http://www.w3.org/2000/svg" viewBox="0 0 607.3 25.47"><rect y=".48" width="164.48" height="24.99" style="stroke-width:0px;"/><g style="isolation:isolate;"><path d="m5.65,19.74V4.71h5.67c1,0,1.76.05,2.29.14.74.12,1.36.36,1.86.7.5.35.9.83,1.21,1.45.3.62.46,1.31.46,2.05,0,1.28-.41,2.36-1.22,3.25-.81.89-2.28,1.33-4.41,1.33h-3.86v6.11h-1.99Zm1.99-7.88h3.89c1.29,0,2.2-.24,2.74-.72.54-.48.81-1.15.81-2.02,0-.63-.16-1.17-.48-1.62-.32-.45-.74-.74-1.26-.89-.33-.09-.95-.13-1.86-.13h-3.84v5.37Z" style="fill:#fff; stroke-width:0px;"/><path d="m19.58,19.74V4.71h1.99v13.26h7.4v1.77h-9.39Z" style="fill:#fff; stroke-width:0px;"/><path d="m29.69,19.74l5.77-15.03h2.14l6.15,15.03h-2.27l-1.75-4.55h-6.29l-1.65,4.55h-2.11Zm4.34-6.17h5.1l-1.57-4.16c-.48-1.26-.83-2.3-1.07-3.12-.19.96-.46,1.92-.81,2.87l-1.65,4.41Z" style="fill:#fff; stroke-width:0px;"/><path d="m48.02,19.74v-6.37l-5.79-8.67h2.42l2.96,4.53c.55.85,1.06,1.7,1.53,2.54.45-.79,1-1.67,1.64-2.66l2.91-4.42h2.32l-6,8.67v6.37h-1.99Z" style="fill:#fff; stroke-width:0px;"/></g><line y1=".48" x2="607.3" y2=".48" style="fill:none; stroke:#000; stroke-miterlimit:10;"/></svg>