<?xml version="1.0" encoding="UTF-8"?><svg id="uuid-08a2a420-a86f-4583-aa05-2533f9a66c09" xmlns="http://www.w3.org/2000/svg" viewBox="0 0 607.3 25.47"><rect y=".48" width="164.48" height="24.99" style="stroke-width:0px;"/><g style="isolation:isolate;"><path d="m5.68,19.74V4.71h6.67c1.34,0,2.36.13,3.06.41.7.27,1.25.75,1.67,1.43.42.68.62,1.44.62,2.27,0,1.07-.35,1.97-1.04,2.7-.69.73-1.76,1.2-3.2,1.39.53.25.93.5,1.2.75.58.53,1.13,1.2,1.65,2l2.62,4.09h-2.5l-1.99-3.13c-.58-.9-1.06-1.59-1.44-2.07-.38-.48-.71-.81-1.01-1-.3-.19-.6-.33-.91-.4-.23-.05-.6-.07-1.11-.07h-2.31v6.68h-1.99Zm1.99-8.4h4.28c.91,0,1.62-.09,2.13-.28.51-.19.9-.49,1.17-.9.27-.41.4-.86.4-1.35,0-.71-.26-1.29-.77-1.75-.52-.46-1.33-.69-2.45-.69h-4.76v4.97Z" style="fill:#fff; stroke-width:0px;"/><path d="m20.86,19.74V4.71h10.87v1.77h-8.88v4.6h8.32v1.76h-8.32v5.12h9.23v1.77h-11.22Z" style="fill:#fff; stroke-width:0px;"/><path d="m34.14,14.91l1.88-.16c.09.75.29,1.37.62,1.85.32.48.83.87,1.51,1.17.68.3,1.45.45,2.31.45.76,0,1.43-.11,2.01-.34s1.01-.54,1.3-.93c.28-.39.43-.82.43-1.29s-.14-.88-.41-1.24c-.27-.35-.72-.65-1.35-.89-.4-.16-1.29-.4-2.68-.73-1.38-.33-2.35-.64-2.9-.94-.72-.38-1.25-.84-1.6-1.4-.35-.56-.53-1.18-.53-1.87,0-.76.21-1.47.65-2.13.43-.66,1.06-1.16,1.89-1.5.83-.34,1.75-.51,2.76-.51,1.11,0,2.1.18,2.95.54.85.36,1.5.89,1.96,1.58.46.7.7,1.49.74,2.37l-1.91.14c-.1-.95-.45-1.67-1.04-2.15-.59-.49-1.46-.73-2.62-.73s-2.08.22-2.63.66c-.55.44-.83.97-.83,1.59,0,.54.19.98.58,1.33.38.35,1.38.71,3,1.07,1.62.37,2.73.69,3.33.96.88.4,1.52.91,1.94,1.53.42.62.63,1.33.63,2.14s-.23,1.55-.69,2.26c-.46.71-1.12,1.26-1.97,1.65-.86.39-1.82.59-2.9.59-1.36,0-2.5-.2-3.42-.59-.92-.4-1.64-.99-2.16-1.79-.52-.8-.8-1.7-.83-2.7Z" style="fill:#fff; stroke-width:0px;"/><path d="m48.87,19.74V4.71h10.87v1.77h-8.88v4.6h8.32v1.76h-8.32v5.12h9.23v1.77h-11.22Z" style="fill:#fff; stroke-width:0px;"/><path d="m61.18,19.74l5.77-15.03h2.14l6.15,15.03h-2.27l-1.75-4.55h-6.29l-1.65,4.55h-2.11Zm4.34-6.17h5.1l-1.57-4.16c-.48-1.26-.83-2.3-1.07-3.12-.19.96-.46,1.92-.81,2.87l-1.65,4.41Z" style="fill:#fff; stroke-width:0px;"/><path d="m76.87,19.74V4.71h6.66c1.34,0,2.36.13,3.06.41.7.27,1.25.75,1.67,1.43.42.68.63,1.44.63,2.27,0,1.07-.35,1.97-1.04,2.7-.69.73-1.76,1.2-3.2,1.39.53.25.93.5,1.2.75.58.53,1.13,1.2,1.65,2l2.62,4.09h-2.5l-1.99-3.13c-.58-.9-1.06-1.59-1.44-2.07-.38-.48-.71-.81-1.01-1-.3-.19-.6-.33-.91-.4-.23-.05-.59-.07-1.11-.07h-2.31v6.68h-1.99Zm1.99-8.4h4.28c.91,0,1.62-.09,2.13-.28.51-.19.9-.49,1.17-.9.27-.41.4-.86.4-1.35,0-.71-.26-1.29-.77-1.75-.52-.46-1.33-.69-2.45-.69h-4.76v4.97Z" style="fill:#fff; stroke-width:0px;"/><path d="m102.73,14.47l1.99.5c-.42,1.63-1.17,2.88-2.25,3.74-1.08.86-2.41,1.29-3.97,1.29s-2.94-.33-3.95-.99c-1.02-.66-1.79-1.61-2.32-2.87-.53-1.25-.79-2.59-.79-4.03,0-1.57.3-2.93.9-4.1.6-1.17,1.45-2.05,2.55-2.66,1.1-.61,2.32-.91,3.65-.91,1.5,0,2.77.38,3.79,1.15,1.03.77,1.74,1.84,2.14,3.23l-1.96.46c-.35-1.09-.86-1.89-1.52-2.39-.66-.5-1.5-.75-2.5-.75-1.16,0-2.12.28-2.9.83-.78.55-1.32,1.3-1.64,2.23-.31.93-.47,1.9-.47,2.89,0,1.28.19,2.39.56,3.35.37.95.95,1.67,1.74,2.14.79.47,1.64.71,2.55.71,1.11,0,2.06-.32,2.83-.96.77-.64,1.29-1.6,1.57-2.86Z" style="fill:#fff; stroke-width:0px;"/><path d="m107.23,19.74V4.71h1.99v6.17h7.81v-6.17h1.99v15.03h-1.99v-7.09h-7.81v7.09h-1.99Z" style="fill:#fff; stroke-width:0px;"/></g><line y1=".48" x2="607.3" y2=".48" style="fill:none; stroke:#000; stroke-miterlimit:10;"/></svg>