<?xml version="1.0" encoding="UTF-8"?><svg id="uuid-912d4de7-b174-4256-abaf-ed10c036ae87" xmlns="http://www.w3.org/2000/svg" xmlns:xlink="http://www.w3.org/1999/xlink" viewBox="0 0 607.3 31.22"><a xlink:href="www.alexlorman.com/about"><polygon points="442.82 7.25 442.82 7.25 442.82 31.22 607.3 31.22 607.3 7.25 442.82 7.25" style="stroke-width:0px;"/></a><rect x="0" y="29.94" width="604.67" height="1.28" style="stroke-width:0px;"/><g style="isolation:isolate;"><path d="m448.44,25.88l5.77-15.03h2.14l6.15,15.03h-2.27l-1.75-4.55h-6.29l-1.65,4.55h-2.11Zm4.34-6.17h5.1l-1.57-4.16c-.48-1.26-.83-2.3-1.07-3.12-.19.96-.46,1.92-.81,2.87l-1.65,4.41Z" style="fill:#fff; stroke-width:0px;"/><path d="m464.02,25.88v-15.03h1.99v13.26h7.4v1.77h-9.39Z" style="fill:#fff; stroke-width:0px;"/><path d="m475.82,25.88v-15.03h10.87v1.77h-8.88v4.6h8.32v1.76h-8.32v5.12h9.23v1.77h-11.22Z" style="fill:#fff; stroke-width:0px;"/><path d="m488.26,25.88l5.81-7.83-5.13-7.2h2.37l2.73,3.86c.57.8.97,1.42,1.21,1.85.33-.55.73-1.12,1.19-1.71l3.02-3.99h2.16l-5.28,7.08,5.69,7.95h-2.46l-3.78-5.36c-.21-.31-.43-.64-.66-1-.33.55-.57.92-.72,1.13l-3.77,5.24h-2.39Z" style="fill:#fff; stroke-width:0px;"/><path d="m509.55,25.88v-15.03h1.99v13.26h7.4v1.77h-9.39Z" style="fill:#fff; stroke-width:0px;"/><path d="m520.7,18.56c0-2.5.67-4.45,2.01-5.86,1.34-1.41,3.07-2.12,5.19-2.12,1.39,0,2.64.33,3.75.99,1.12.66,1.96,1.59,2.55,2.77.58,1.19.88,2.53.88,4.03s-.31,2.89-.92,4.09-1.49,2.11-2.61,2.73c-1.13.62-2.34.93-3.65.93-1.42,0-2.68-.34-3.79-1.03-1.11-.68-1.96-1.62-2.53-2.8s-.86-2.43-.86-3.75Zm2.05.03c0,1.81.49,3.24,1.46,4.28.97,1.04,2.2,1.56,3.67,1.56s2.73-.53,3.7-1.58c.97-1.05,1.45-2.55,1.45-4.48,0-1.22-.21-2.29-.62-3.2-.41-.91-1.02-1.62-1.81-2.12-.8-.5-1.69-.75-2.68-.75-1.41,0-2.62.48-3.63,1.45-1.02.97-1.52,2.58-1.52,4.84Z" style="fill:#fff; stroke-width:0px;"/><path d="m537.67,25.88v-15.03h6.67c1.34,0,2.36.13,3.06.41.7.27,1.25.75,1.67,1.43.42.68.62,1.44.62,2.27,0,1.07-.35,1.97-1.04,2.7-.69.73-1.76,1.2-3.2,1.39.53.25.93.5,1.2.75.58.53,1.13,1.2,1.65,2l2.62,4.09h-2.5l-1.99-3.13c-.58-.9-1.06-1.59-1.44-2.07-.38-.48-.71-.81-1.01-1-.3-.19-.6-.33-.91-.4-.23-.05-.6-.07-1.11-.07h-2.31v6.68h-1.99Zm1.99-8.4h4.28c.91,0,1.62-.09,2.13-.28.51-.19.9-.49,1.17-.9.27-.41.4-.86.4-1.35,0-.71-.26-1.29-.77-1.75-.52-.46-1.33-.69-2.45-.69h-4.76v4.97Z" style="fill:#fff; stroke-width:0px;"/><path d="m552.75,25.88v-15.03h2.99l3.56,10.64c.33.99.57,1.73.72,2.22.17-.55.44-1.35.8-2.41l3.6-10.46h2.68v15.03h-1.92v-12.58l-4.37,12.58h-1.79l-4.35-12.8v12.8h-1.92Z" style="fill:#fff; stroke-width:0px;"/><path d="m568.65,25.88l5.77-15.03h2.14l6.15,15.03h-2.27l-1.75-4.55h-6.29l-1.65,4.55h-2.11Zm4.34-6.17h5.1l-1.57-4.16c-.48-1.26-.83-2.3-1.07-3.12-.19.96-.46,1.92-.81,2.87l-1.65,4.41Z" style="fill:#fff; stroke-width:0px;"/><path d="m584.29,25.88v-15.03h2.04l7.9,11.8v-11.8h1.91v15.03h-2.04l-7.9-11.81v11.81h-1.91Z" style="fill:#fff; stroke-width:0px;"/></g></svg>
