<?xml version="1.0" encoding="UTF-8"?><svg id="uuid-755a3f66-c437-49cc-a2d0-b024d5efe05d" xmlns="http://www.w3.org/2000/svg" xmlns:xlink="http://www.w3.org/1999/xlink" viewBox="0 0 607.3 31.22"><a xlink:href="www.alexlorman.com/directory"><polygon points="442.82 7.25 442.82 7.25 442.82 31.22 607.3 31.22 607.3 7.25 442.82 7.25" style="stroke-width:0px;"/></a><g style="isolation:isolate;"><path d="m558.93,17.13v-5.73h2.54c.51,0,.9.05,1.16.15s.48.28.64.54c.16.26.24.55.24.86,0,.41-.13.75-.39,1.03-.26.28-.67.46-1.22.53.2.1.35.19.46.29.22.2.43.46.63.76l1,1.56h-.95l-.76-1.19c-.22-.34-.4-.61-.55-.79-.14-.18-.27-.31-.38-.38s-.23-.12-.35-.15c-.09-.02-.23-.03-.42-.03h-.88v2.54h-.76Zm.76-3.2h1.63c.35,0,.62-.04.81-.11s.34-.19.45-.34.15-.33.15-.51c0-.27-.1-.49-.29-.67-.2-.17-.51-.26-.93-.26h-1.81v1.89Z" style="fill:#fff; stroke-width:0px;"/><path d="m564.71,17.13v-5.73h4.14v.68h-3.38v1.75h3.17v.67h-3.17v1.95h3.52v.68h-4.27Z" style="fill:#fff; stroke-width:0px;"/><path d="m571.48,17.13v-5.05h-1.89v-.68h4.54v.68h-1.89v5.05h-.76Z" style="fill:#fff; stroke-width:0px;"/><path d="m578.67,11.4h.76v3.31c0,.58-.06,1.03-.2,1.37-.13.34-.37.61-.71.83s-.79.32-1.34.32-.97-.09-1.32-.28c-.34-.18-.58-.45-.73-.8-.15-.35-.22-.83-.22-1.44v-3.31h.76v3.3c0,.5.05.86.14,1.1.09.24.25.42.48.54.23.13.5.19.83.19.56,0,.96-.13,1.19-.38.24-.25.36-.74.36-1.46v-3.3Z" style="fill:#fff; stroke-width:0px;"/><path d="m580.7,17.13v-5.73h2.54c.51,0,.9.05,1.16.15s.48.28.64.54c.16.26.24.55.24.86,0,.41-.13.75-.39,1.03-.26.28-.67.46-1.22.53.2.1.35.19.46.29.22.2.43.46.63.76l1,1.56h-.95l-.76-1.19c-.22-.34-.4-.61-.55-.79-.14-.18-.27-.31-.38-.38s-.23-.12-.35-.15c-.09-.02-.23-.03-.42-.03h-.88v2.54h-.76Zm.76-3.2h1.63c.35,0,.62-.04.81-.11s.34-.19.45-.34.15-.33.15-.51c0-.27-.1-.49-.29-.67-.2-.17-.51-.26-.93-.26h-1.81v1.89Z" style="fill:#fff; stroke-width:0px;"/><path d="m586.46,17.13v-5.73h.78l3.01,4.5v-4.5h.73v5.73h-.78l-3.01-4.5v4.5h-.73Z" style="fill:#fff; stroke-width:0px;"/><path d="m595.78,17.13v-5.05h-1.89v-.68h4.54v.68h-1.89v5.05h-.76Z" style="fill:#fff; stroke-width:0px;"/><path d="m598.84,14.34c0-.95.26-1.69.77-2.23.51-.54,1.17-.81,1.98-.81.53,0,1.01.13,1.43.38.42.25.75.6.97,1.06s.33.96.33,1.54-.12,1.1-.35,1.56-.57.81-1,1.04-.89.35-1.39.35c-.54,0-1.02-.13-1.45-.39-.42-.26-.75-.62-.96-1.07s-.33-.93-.33-1.43Zm.78.01c0,.69.19,1.23.56,1.63s.84.6,1.4.6,1.04-.2,1.41-.6c.37-.4.55-.97.55-1.71,0-.47-.08-.87-.24-1.22-.16-.35-.39-.62-.69-.81-.3-.19-.64-.29-1.02-.29-.54,0-1,.18-1.38.55s-.58.98-.58,1.85Z" style="fill:#fff; stroke-width:0px;"/><path d="m506.29,26.73l-1.52-5.73h.78l.87,3.75c.09.39.17.78.24,1.17.15-.61.23-.96.26-1.06l1.09-3.87h.91l.82,2.9c.21.72.35,1.39.45,2.03.07-.36.17-.78.29-1.25l.9-3.68h.76l-1.57,5.73h-.73l-1.21-4.36c-.1-.36-.16-.59-.18-.67-.06.26-.12.49-.17.67l-1.21,4.36h-.77Z" style="fill:#fff; stroke-width:0px;"/><path d="m513.84,26.73l-1.52-5.73h.78l.87,3.75c.09.39.17.78.24,1.17.15-.61.23-.96.26-1.06l1.09-3.87h.91l.82,2.9c.21.72.35,1.39.45,2.03.07-.36.17-.78.29-1.25l.9-3.68h.76l-1.57,5.73h-.73l-1.21-4.36c-.1-.36-.16-.59-.18-.67-.06.26-.12.49-.17.67l-1.21,4.36h-.77Z" style="fill:#fff; stroke-width:0px;"/><path d="m521.39,26.73l-1.52-5.73h.78l.87,3.75c.09.39.17.78.24,1.17.15-.61.23-.96.26-1.06l1.09-3.87h.91l.82,2.9c.21.72.35,1.39.45,2.03.07-.36.17-.78.29-1.25l.9-3.68h.76l-1.57,5.73h-.73l-1.21-4.36c-.1-.36-.16-.59-.18-.67-.06.26-.12.49-.17.67l-1.21,4.36h-.77Z" style="fill:#fff; stroke-width:0px;"/><path d="m527.61,26.73v-.8h.8v.8h-.8Z" style="fill:#fff; stroke-width:0px;"/><path d="m529.09,26.73l2.2-5.73h.82l2.34,5.73h-.86l-.67-1.73h-2.39l-.63,1.73h-.8Zm1.65-2.35h1.94l-.6-1.59c-.18-.48-.32-.88-.41-1.19-.07.37-.18.73-.31,1.09l-.63,1.68Z" style="fill:#fff; stroke-width:0px;"/><path d="m535.02,26.73v-5.73h.76v5.05h2.82v.68h-3.58Z" style="fill:#fff; stroke-width:0px;"/><path d="m539.52,26.73v-5.73h4.14v.68h-3.38v1.75h3.17v.67h-3.17v1.95h3.52v.68h-4.27Z" style="fill:#fff; stroke-width:0px;"/><path d="m544.26,26.73l2.21-2.98-1.95-2.74h.9l1.04,1.47c.22.3.37.54.46.7.13-.21.28-.43.45-.65l1.15-1.52h.82l-2.01,2.7,2.17,3.03h-.94l-1.44-2.04c-.08-.12-.16-.25-.25-.38-.13.21-.22.35-.27.43l-1.44,2h-.91Z" style="fill:#fff; stroke-width:0px;"/><path d="m550.14,26.73v-5.73h.76v5.05h2.82v.68h-3.58Z" style="fill:#fff; stroke-width:0px;"/><path d="m554.39,23.94c0-.95.26-1.69.77-2.23.51-.54,1.17-.81,1.98-.81.53,0,1.01.13,1.43.38.42.25.75.6.97,1.06s.33.96.33,1.54-.12,1.1-.35,1.56-.57.81-1,1.04-.89.35-1.39.35c-.54,0-1.02-.13-1.45-.39-.42-.26-.75-.62-.96-1.07s-.33-.93-.33-1.43Zm.78.01c0,.69.19,1.23.56,1.63s.84.6,1.4.6,1.04-.2,1.41-.6c.37-.4.55-.97.55-1.71,0-.47-.08-.87-.24-1.22-.16-.35-.39-.62-.69-.81-.3-.19-.64-.29-1.02-.29-.54,0-1,.18-1.38.55s-.58.98-.58,1.85Z" style="fill:#fff; stroke-width:0px;"/><path d="m560.86,26.73v-5.73h2.54c.51,0,.9.05,1.16.15s.48.28.64.54c.16.26.24.55.24.86,0,.41-.13.75-.39,1.03-.26.28-.67.46-1.22.53.2.1.35.19.46.29.22.2.43.46.63.76l1,1.56h-.95l-.76-1.19c-.22-.34-.4-.61-.55-.79-.14-.18-.27-.31-.38-.38s-.23-.12-.35-.15c-.09-.02-.23-.03-.42-.03h-.88v2.54h-.76Zm.76-3.2h1.63c.35,0,.62-.04.81-.11s.34-.19.45-.34.15-.33.15-.51c0-.27-.1-.49-.29-.67-.2-.17-.51-.26-.93-.26h-1.81v1.89Z" style="fill:#fff; stroke-width:0px;"/><path d="m566.6,26.73v-5.73h1.14l1.36,4.05c.12.38.22.66.27.85.07-.21.17-.51.3-.92l1.37-3.98h1.02v5.73h-.73v-4.79l-1.66,4.79h-.68l-1.66-4.88v4.88h-.73Z" style="fill:#fff; stroke-width:0px;"/><path d="m572.66,26.73l2.2-5.73h.82l2.34,5.73h-.86l-.67-1.73h-2.39l-.63,1.73h-.8Zm1.65-2.35h1.94l-.6-1.59c-.18-.48-.32-.88-.41-1.19-.07.37-.18.73-.31,1.09l-.63,1.68Z" style="fill:#fff; stroke-width:0px;"/><path d="m578.62,26.73v-5.73h.78l3.01,4.5v-4.5h.73v5.73h-.78l-3.01-4.5v4.5h-.73Z" style="fill:#fff; stroke-width:0px;"/><path d="m584.51,26.73v-.8h.8v.8h-.8Z" style="fill:#fff; stroke-width:0px;"/><path d="m590.71,24.72l.76.19c-.16.62-.44,1.1-.86,1.42-.41.33-.92.49-1.51.49s-1.12-.13-1.51-.38-.68-.62-.88-1.09c-.2-.48-.3-.99-.3-1.54,0-.6.11-1.12.34-1.56.23-.44.55-.78.97-1.01.42-.23.88-.35,1.39-.35.57,0,1.05.15,1.45.44s.66.7.82,1.23l-.75.18c-.13-.42-.33-.72-.58-.91-.25-.19-.57-.29-.95-.29-.44,0-.81.11-1.1.32-.29.21-.5.49-.62.85-.12.36-.18.72-.18,1.1,0,.49.07.91.21,1.28.14.36.36.63.66.81.3.18.62.27.97.27.42,0,.78-.12,1.08-.37.29-.25.49-.61.6-1.09Z" style="fill:#fff; stroke-width:0px;"/><path d="m592.17,23.94c0-.95.26-1.69.77-2.23.51-.54,1.17-.81,1.98-.81.53,0,1.01.13,1.43.38.42.25.75.6.97,1.06s.33.96.33,1.54-.12,1.1-.35,1.56-.57.81-1,1.04-.89.35-1.39.35c-.54,0-1.02-.13-1.45-.39-.42-.26-.75-.62-.96-1.07s-.33-.93-.33-1.43Zm.78.01c0,.69.19,1.23.56,1.63s.84.6,1.4.6,1.04-.2,1.41-.6c.37-.4.55-.97.55-1.71,0-.47-.08-.87-.24-1.22-.16-.35-.39-.62-.69-.81-.3-.19-.64-.29-1.02-.29-.54,0-1,.18-1.38.55s-.58.98-.58,1.85Z" style="fill:#fff; stroke-width:0px;"/><path d="m598.6,26.73v-5.73h1.14l1.36,4.05c.12.38.22.66.27.85.07-.21.17-.51.3-.92l1.37-3.98h1.02v5.73h-.73v-4.79l-1.66,4.79h-.68l-1.66-4.88v4.88h-.73Z" style="fill:#fff; stroke-width:0px;"/></g></svg>