<?xml version="1.0" encoding="UTF-8"?><svg id="uuid-ec3a7661-d0ae-4c55-9729-621a85a3ce8f" xmlns="http://www.w3.org/2000/svg" xmlns:xlink="http://www.w3.org/1999/xlink" viewBox="0 0 607.3 31.22"><a xlink:href="www.alexlorman.com/directory"><polygon points="0 21.07 0 21.07 0 31.22 607.3 31.22 607.3 21.07 0 21.07" style="stroke-width:0px;"/></a><g style="isolation:isolate;"><path d="m512.19,28.1v-3.58h1.59c.32,0,.56.03.73.1s.3.18.4.34c.1.16.15.34.15.54,0,.25-.08.47-.25.64-.16.17-.42.29-.76.33.13.06.22.12.29.18.14.13.27.29.39.48l.62.97h-.6l-.47-.74c-.14-.21-.25-.38-.34-.49-.09-.11-.17-.19-.24-.24-.07-.05-.14-.08-.22-.1-.05-.01-.14-.02-.26-.02h-.55v1.59h-.47Zm.47-2h1.02c.22,0,.39-.02.51-.07.12-.04.21-.12.28-.21.06-.1.09-.21.09-.32,0-.17-.06-.31-.18-.42-.12-.11-.32-.16-.58-.16h-1.13v1.18Z" style="fill:#fff; stroke-width:0px;"/><path d="m515.8,28.1v-3.58h2.59v.42h-2.11v1.1h1.98v.42h-1.98v1.22h2.2v.42h-2.67Z" style="fill:#fff; stroke-width:0px;"/><path d="m520.04,28.1v-3.16h-1.18v-.42h2.84v.42h-1.18v3.16h-.47Z" style="fill:#fff; stroke-width:0px;"/><path d="m524.53,24.52h.47v2.07c0,.36-.04.65-.12.86-.08.21-.23.38-.44.52-.21.13-.49.2-.84.2s-.61-.06-.82-.17c-.21-.12-.37-.28-.46-.5s-.14-.52-.14-.9v-2.07h.47v2.07c0,.31.03.54.09.69.06.15.16.26.3.34.14.08.31.12.52.12.35,0,.6-.08.75-.24.15-.16.22-.46.22-.91v-2.07Z" style="fill:#fff; stroke-width:0px;"/><path d="m525.8,28.1v-3.58h1.59c.32,0,.56.03.73.1s.3.18.4.34c.1.16.15.34.15.54,0,.25-.08.47-.25.64-.16.17-.42.29-.76.33.12.06.22.12.29.18.14.13.27.29.39.48l.62.97h-.6l-.47-.74c-.14-.21-.25-.38-.34-.49-.09-.11-.17-.19-.24-.24-.07-.05-.14-.08-.22-.1-.05-.01-.14-.02-.26-.02h-.55v1.59h-.47Zm.47-2h1.02c.22,0,.39-.02.51-.07s.21-.12.28-.21.09-.21.09-.32c0-.17-.06-.31-.18-.42-.12-.11-.32-.16-.58-.16h-1.13v1.18Z" style="fill:#fff; stroke-width:0px;"/><path d="m529.4,28.1v-3.58h.49l1.88,2.81v-2.81h.45v3.58h-.49l-1.88-2.81v2.81h-.45Z" style="fill:#fff; stroke-width:0px;"/><path d="m535.23,28.1v-3.16h-1.18v-.42h2.84v.42h-1.18v3.16h-.47Z" style="fill:#fff; stroke-width:0px;"/><path d="m537.14,26.35c0-.59.16-1.06.48-1.4.32-.34.73-.5,1.23-.5.33,0,.63.08.89.24.26.16.47.38.61.66.14.28.21.6.21.96s-.07.69-.22.97-.35.5-.62.65-.56.22-.87.22c-.34,0-.64-.08-.9-.24-.26-.16-.47-.38-.6-.67s-.21-.58-.21-.89Zm.49,0c0,.43.12.77.35,1.02.23.25.52.37.87.37s.65-.13.88-.38c.23-.25.34-.61.34-1.07,0-.29-.05-.55-.15-.76-.1-.22-.24-.39-.43-.51-.19-.12-.4-.18-.64-.18-.33,0-.62.11-.87.34-.24.23-.36.62-.36,1.15Z" style="fill:#fff; stroke-width:0px;"/><path d="m543.18,28.1l-.95-3.58h.49l.54,2.35c.06.25.11.49.15.73.09-.38.14-.6.16-.66l.68-2.42h.57l.51,1.81c.13.45.22.87.28,1.27.05-.23.1-.49.18-.78l.56-2.3h.48l-.98,3.58h-.46l-.75-2.73c-.06-.23-.1-.37-.11-.42-.04.16-.07.3-.11.42l-.76,2.73h-.48Z" style="fill:#fff; stroke-width:0px;"/><path d="m547.9,28.1l-.95-3.58h.49l.54,2.35c.06.25.11.49.15.73.09-.38.14-.6.16-.66l.68-2.42h.57l.51,1.81c.13.45.22.87.28,1.27.04-.23.1-.49.18-.78l.56-2.3h.48l-.98,3.58h-.46l-.75-2.73c-.06-.23-.1-.37-.11-.42-.04.16-.07.3-.1.42l-.76,2.73h-.48Z" style="fill:#fff; stroke-width:0px;"/><path d="m552.62,28.1l-.95-3.58h.49l.54,2.35c.06.25.11.49.15.73.09-.38.15-.6.16-.66l.68-2.42h.57l.51,1.81c.13.45.22.87.28,1.27.04-.23.11-.49.18-.78l.56-2.3h.48l-.98,3.58h-.46l-.75-2.73c-.06-.23-.1-.37-.11-.42-.04.16-.07.3-.1.42l-.76,2.73h-.48Z" style="fill:#fff; stroke-width:0px;"/><path d="m556.51,28.1v-.5h.5v.5h-.5Z" style="fill:#fff; stroke-width:0px;"/><path d="m557.43,28.1l1.37-3.58h.51l1.46,3.58h-.54l-.42-1.08h-1.5l-.39,1.08h-.5Zm1.03-1.47h1.21l-.37-.99c-.11-.3-.2-.55-.25-.74-.04.23-.11.46-.19.68l-.39,1.05Z" style="fill:#fff; stroke-width:0px;"/><path d="m561.14,28.1v-3.58h.47v3.16h1.76v.42h-2.24Z" style="fill:#fff; stroke-width:0px;"/><path d="m563.95,28.1v-3.58h2.59v.42h-2.11v1.1h1.98v.42h-1.98v1.22h2.2v.42h-2.67Z" style="fill:#fff; stroke-width:0px;"/><path d="m566.91,28.1l1.38-1.87-1.22-1.71h.56l.65.92c.14.19.23.34.29.44.08-.13.17-.27.28-.41l.72-.95h.51l-1.26,1.69,1.35,1.89h-.59l-.9-1.28c-.05-.07-.1-.15-.16-.24-.08.13-.14.22-.17.27l-.9,1.25h-.57Z" style="fill:#fff; stroke-width:0px;"/><path d="m570.59,28.1v-3.58h.47v3.16h1.76v.42h-2.24Z" style="fill:#fff; stroke-width:0px;"/><path d="m573.25,26.35c0-.59.16-1.06.48-1.4s.73-.5,1.24-.5c.33,0,.63.08.89.24.27.16.47.38.61.66.14.28.21.6.21.96s-.07.69-.22.97-.35.5-.62.65c-.27.15-.56.22-.87.22-.34,0-.64-.08-.9-.24-.27-.16-.47-.38-.6-.67s-.21-.58-.21-.89Zm.49,0c0,.43.12.77.35,1.02s.52.37.87.37.65-.13.88-.38c.23-.25.34-.61.34-1.07,0-.29-.05-.55-.15-.76-.1-.22-.24-.39-.43-.51-.19-.12-.4-.18-.64-.18-.34,0-.62.11-.87.34-.24.23-.36.62-.36,1.15Z" style="fill:#fff; stroke-width:0px;"/><path d="m577.29,28.1v-3.58h1.59c.32,0,.56.03.73.1s.3.18.4.34c.1.16.15.34.15.54,0,.25-.08.47-.25.64-.17.17-.42.29-.76.33.13.06.22.12.29.18.14.13.27.29.39.48l.62.97h-.6l-.47-.74c-.14-.21-.25-.38-.34-.49-.09-.11-.17-.19-.24-.24-.07-.05-.14-.08-.22-.1-.05-.01-.14-.02-.26-.02h-.55v1.59h-.47Zm.47-2h1.02c.22,0,.39-.02.51-.07s.21-.12.28-.21.1-.21.1-.32c0-.17-.06-.31-.18-.42-.12-.11-.32-.16-.58-.16h-1.13v1.18Z" style="fill:#fff; stroke-width:0px;"/><path d="m580.88,28.1v-3.58h.71l.85,2.53c.08.24.13.41.17.53.04-.13.1-.32.19-.57l.86-2.49h.64v3.58h-.46v-3l-1.04,3h-.43l-1.04-3.05v3.05h-.46Z" style="fill:#fff; stroke-width:0px;"/><path d="m584.67,28.1l1.38-3.58h.51l1.46,3.58h-.54l-.42-1.08h-1.5l-.39,1.08h-.5Zm1.03-1.47h1.21l-.37-.99c-.11-.3-.2-.55-.25-.74-.05.23-.11.46-.19.68l-.39,1.05Z" style="fill:#fff; stroke-width:0px;"/><path d="m588.39,28.1v-3.58h.49l1.88,2.81v-2.81h.45v3.58h-.49l-1.88-2.81v2.81h-.46Z" style="fill:#fff; stroke-width:0px;"/><path d="m592.07,28.1v-.5h.5v.5h-.5Z" style="fill:#fff; stroke-width:0px;"/><path d="m595.95,26.84l.47.12c-.1.39-.28.69-.54.89-.26.2-.57.31-.95.31s-.7-.08-.94-.24-.43-.38-.55-.68c-.13-.3-.19-.62-.19-.96,0-.37.07-.7.21-.98s.35-.49.61-.63c.26-.14.55-.22.87-.22.36,0,.66.09.9.27.24.18.41.44.51.77l-.47.11c-.08-.26-.2-.45-.36-.57-.16-.12-.36-.18-.6-.18-.28,0-.51.07-.69.2-.19.13-.32.31-.39.53-.07.22-.11.45-.11.69,0,.3.04.57.13.8.09.23.23.4.41.51.19.11.39.17.61.17.27,0,.49-.08.67-.23.18-.15.31-.38.37-.68Z" style="fill:#fff; stroke-width:0px;"/><path d="m596.86,26.35c0-.59.16-1.06.48-1.4.32-.34.73-.5,1.23-.5.33,0,.63.08.89.24.26.16.47.38.61.66.14.28.21.6.21.96s-.07.69-.22.97-.35.5-.62.65-.56.22-.87.22c-.34,0-.64-.08-.9-.24-.26-.16-.47-.38-.6-.67s-.21-.58-.21-.89Zm.49,0c0,.43.12.77.35,1.02.23.25.52.37.87.37s.65-.13.88-.38c.23-.25.34-.61.34-1.07,0-.29-.05-.55-.15-.76-.1-.22-.24-.39-.43-.51-.19-.12-.4-.18-.64-.18-.33,0-.62.11-.87.34-.24.23-.36.62-.36,1.15Z" style="fill:#fff; stroke-width:0px;"/><path d="m600.88,28.1v-3.58h.71l.85,2.53c.08.24.13.41.17.53.04-.13.1-.32.19-.57l.86-2.49h.64v3.58h-.46v-3l-1.04,3h-.43l-1.04-3.05v3.05h-.46Z" style="fill:#fff; stroke-width:0px;"/></g></svg>