<?xml version="1.0" encoding="UTF-8"?><svg id="uuid-5397ad48-df8e-4ab2-9e39-1cb1e9ffd7c2" xmlns="http://www.w3.org/2000/svg" xmlns:xlink="http://www.w3.org/1999/xlink" viewBox="0 0 607.3 31.22"><a xlink:href="www.alexlorman.com/directory"><polygon points="0 18.44 0 18.44 0 31.22 607.3 31.22 607.3 18.44 0 18.44" style="stroke-width:0px;"/></a><g style="isolation:isolate;"><path d="m438.2,28.1v-6.44h2.86c.57,0,1.01.06,1.31.17.3.12.54.32.72.61.18.29.27.62.27.97,0,.46-.15.84-.44,1.16-.29.31-.75.51-1.37.6.23.11.4.22.51.32.25.23.49.51.71.86l1.12,1.75h-1.07l-.85-1.34c-.25-.39-.45-.68-.62-.89-.16-.2-.3-.35-.43-.43-.13-.08-.26-.14-.39-.17-.1-.02-.25-.03-.47-.03h-.99v2.86h-.85Zm.85-3.6h1.83c.39,0,.7-.04.91-.12.22-.08.39-.21.5-.39.11-.18.17-.37.17-.58,0-.3-.11-.55-.33-.75-.22-.2-.57-.29-1.05-.29h-2.04v2.13Z" style="fill:#fff; stroke-width:0px;"/><path d="m444.71,28.1v-6.44h4.66v.76h-3.81v1.97h3.56v.76h-3.56v2.19h3.96v.76h-4.81Z" style="fill:#fff; stroke-width:0px;"/><path d="m452.33,28.1v-5.68h-2.12v-.76h5.11v.76h-2.13v5.68h-.85Z" style="fill:#fff; stroke-width:0px;"/><path d="m460.42,21.65h.85v3.72c0,.65-.07,1.16-.22,1.54s-.41.69-.79.93c-.38.24-.88.36-1.5.36s-1.1-.1-1.48-.31c-.38-.21-.66-.51-.82-.9-.16-.39-.25-.93-.25-1.62v-3.72h.85v3.72c0,.56.05.97.16,1.24.1.26.28.47.54.61.25.14.56.22.93.22.63,0,1.07-.14,1.34-.43.27-.28.4-.83.4-1.64v-3.72Z" style="fill:#fff; stroke-width:0px;"/><path d="m462.7,28.1v-6.44h2.86c.57,0,1.01.06,1.31.17.3.12.54.32.72.61.18.29.27.62.27.97,0,.46-.15.84-.44,1.16-.3.31-.75.51-1.37.6.23.11.4.22.51.32.25.23.49.51.71.86l1.12,1.75h-1.07l-.85-1.34c-.25-.39-.46-.68-.62-.89-.16-.2-.31-.35-.43-.43-.13-.08-.26-.14-.39-.17-.1-.02-.25-.03-.47-.03h-.99v2.86h-.85Zm.85-3.6h1.83c.39,0,.69-.04.91-.12.22-.08.39-.21.5-.39.11-.18.17-.37.17-.58,0-.3-.11-.55-.33-.75-.22-.2-.57-.29-1.05-.29h-2.04v2.13Z" style="fill:#fff; stroke-width:0px;"/><path d="m469.18,28.1v-6.44h.87l3.38,5.06v-5.06h.82v6.44h-.87l-3.38-5.06v5.06h-.82Z" style="fill:#fff; stroke-width:0px;"/><path d="m479.67,28.1v-5.68h-2.12v-.76h5.11v.76h-2.13v5.68h-.85Z" style="fill:#fff; stroke-width:0px;"/><path d="m483.1,24.96c0-1.07.29-1.91.86-2.51.57-.6,1.31-.91,2.22-.91.6,0,1.13.14,1.61.43.48.29.84.68,1.09,1.19.25.51.38,1.08.38,1.73s-.13,1.24-.39,1.75-.64.91-1.12,1.17c-.48.27-1,.4-1.56.4-.61,0-1.15-.15-1.63-.44-.48-.29-.84-.69-1.08-1.2s-.37-1.04-.37-1.61Zm.88.01c0,.78.21,1.39.63,1.83.42.45.94.67,1.57.67s1.17-.23,1.58-.68c.41-.45.62-1.09.62-1.92,0-.52-.09-.98-.27-1.37-.18-.39-.44-.69-.78-.91-.34-.21-.72-.32-1.15-.32-.6,0-1.12.21-1.56.62-.44.42-.65,1.11-.65,2.08Z" style="fill:#fff; stroke-width:0px;"/><path d="m493.99,28.1l-1.71-6.44h.87l.98,4.22c.11.44.2.88.27,1.32.16-.69.26-1.09.29-1.19l1.23-4.35h1.03l.92,3.26c.23.81.4,1.57.5,2.28.08-.41.19-.88.32-1.4l1.01-4.14h.86l-1.77,6.44h-.82l-1.36-4.91c-.11-.41-.18-.66-.2-.76-.07.3-.13.55-.19.76l-1.37,4.91h-.87Z" style="fill:#fff; stroke-width:0px;"/><path d="m502.48,28.1l-1.71-6.44h.88l.98,4.22c.11.44.2.88.27,1.32.16-.69.26-1.09.29-1.19l1.23-4.35h1.03l.92,3.26c.23.81.4,1.57.5,2.28.08-.41.19-.88.32-1.4l1.01-4.14h.86l-1.77,6.44h-.82l-1.36-4.91c-.12-.41-.18-.66-.2-.76-.07.3-.13.55-.19.76l-1.37,4.91h-.87Z" style="fill:#fff; stroke-width:0px;"/><path d="m510.98,28.1l-1.71-6.44h.88l.98,4.22c.11.44.2.88.27,1.32.16-.69.26-1.09.29-1.19l1.23-4.35h1.03l.92,3.26c.23.81.4,1.57.5,2.28.08-.41.19-.88.32-1.4l1.01-4.14h.86l-1.77,6.44h-.82l-1.36-4.91c-.11-.41-.18-.66-.2-.76-.07.3-.13.55-.19.76l-1.37,4.91h-.87Z" style="fill:#fff; stroke-width:0px;"/><path d="m517.97,28.1v-.9h.9v.9h-.9Z" style="fill:#fff; stroke-width:0px;"/><path d="m519.64,28.1l2.47-6.44h.92l2.64,6.44h-.97l-.75-1.95h-2.69l-.71,1.95h-.91Zm1.86-2.65h2.18l-.67-1.78c-.21-.54-.36-.99-.46-1.34-.08.41-.2.82-.35,1.23l-.71,1.89Z" style="fill:#fff; stroke-width:0px;"/><path d="m526.32,28.1v-6.44h.85v5.68h3.17v.76h-4.03Z" style="fill:#fff; stroke-width:0px;"/><path d="m531.38,28.1v-6.44h4.66v.76h-3.81v1.97h3.56v.76h-3.56v2.19h3.96v.76h-4.81Z" style="fill:#fff; stroke-width:0px;"/><path d="m536.71,28.1l2.49-3.36-2.2-3.08h1.02l1.17,1.65c.24.34.42.61.52.79.14-.23.31-.48.51-.73l1.3-1.71h.93l-2.26,3.04,2.44,3.41h-1.05l-1.62-2.3c-.09-.13-.18-.27-.28-.43-.14.23-.25.39-.31.48l-1.62,2.25h-1.02Z" style="fill:#fff; stroke-width:0px;"/><path d="m543.33,28.1v-6.44h.85v5.68h3.17v.76h-4.03Z" style="fill:#fff; stroke-width:0px;"/><path d="m548.11,24.96c0-1.07.29-1.91.86-2.51.57-.6,1.32-.91,2.22-.91.59,0,1.13.14,1.61.43.48.29.84.68,1.09,1.19.25.51.38,1.08.38,1.73s-.13,1.24-.4,1.75-.64.91-1.12,1.17c-.48.27-1,.4-1.56.4-.61,0-1.15-.15-1.62-.44-.48-.29-.84-.69-1.09-1.2s-.37-1.04-.37-1.61Zm.88.01c0,.78.21,1.39.63,1.83.42.45.94.67,1.57.67s1.17-.23,1.58-.68c.41-.45.62-1.09.62-1.92,0-.52-.09-.98-.27-1.37-.18-.39-.44-.69-.78-.91-.34-.21-.72-.32-1.15-.32-.6,0-1.12.21-1.56.62-.44.42-.65,1.11-.65,2.08Z" style="fill:#fff; stroke-width:0px;"/><path d="m555.39,28.1v-6.44h2.86c.57,0,1.01.06,1.31.17.3.12.54.32.72.61.18.29.27.62.27.97,0,.46-.15.84-.44,1.16-.3.31-.75.51-1.37.6.23.11.4.22.51.32.25.23.48.51.71.86l1.12,1.75h-1.07l-.85-1.34c-.25-.39-.45-.68-.62-.89-.16-.2-.3-.35-.43-.43-.13-.08-.26-.14-.39-.17-.1-.02-.25-.03-.47-.03h-.99v2.86h-.85Zm.85-3.6h1.83c.39,0,.69-.04.91-.12.22-.08.39-.21.5-.39.11-.18.17-.37.17-.58,0-.3-.11-.55-.33-.75-.22-.2-.57-.29-1.05-.29h-2.04v2.13Z" style="fill:#fff; stroke-width:0px;"/><path d="m561.84,28.1v-6.44h1.28l1.53,4.56c.14.42.24.74.31.95.07-.23.19-.58.34-1.03l1.54-4.48h1.15v6.44h-.82v-5.39l-1.87,5.39h-.77l-1.86-5.48v5.48h-.82Z" style="fill:#fff; stroke-width:0px;"/><path d="m568.66,28.1l2.47-6.44h.92l2.64,6.44h-.97l-.75-1.95h-2.69l-.71,1.95h-.91Zm1.86-2.65h2.18l-.67-1.78c-.21-.54-.36-.99-.46-1.34-.08.41-.2.82-.35,1.23l-.71,1.89Z" style="fill:#fff; stroke-width:0px;"/><path d="m575.36,28.1v-6.44h.88l3.38,5.06v-5.06h.82v6.44h-.88l-3.38-5.06v5.06h-.82Z" style="fill:#fff; stroke-width:0px;"/><path d="m581.99,28.1v-.9h.9v.9h-.9Z" style="fill:#fff; stroke-width:0px;"/><path d="m588.97,25.84l.85.22c-.18.7-.5,1.23-.96,1.6-.46.37-1.03.55-1.7.55s-1.26-.14-1.69-.42c-.44-.28-.77-.69-.99-1.23-.23-.54-.34-1.11-.34-1.73,0-.67.13-1.26.38-1.76.26-.5.62-.88,1.09-1.14.47-.26.99-.39,1.56-.39.64,0,1.19.17,1.62.49.44.33.75.79.92,1.38l-.84.2c-.15-.47-.37-.81-.65-1.02-.29-.21-.64-.32-1.07-.32-.5,0-.91.12-1.24.36s-.57.56-.7.96c-.13.4-.2.81-.2,1.24,0,.55.08,1.03.24,1.43.16.41.41.71.75.92.34.2.7.3,1.09.3.48,0,.88-.14,1.21-.41.33-.27.55-.68.67-1.23Z" style="fill:#fff; stroke-width:0px;"/><path d="m590.61,24.96c0-1.07.29-1.91.86-2.51.57-.6,1.31-.91,2.22-.91.6,0,1.13.14,1.61.43.48.29.84.68,1.09,1.19.25.51.38,1.08.38,1.73s-.13,1.24-.39,1.75-.64.91-1.12,1.17c-.48.27-1,.4-1.56.4-.61,0-1.15-.15-1.63-.44-.48-.29-.84-.69-1.08-1.2s-.37-1.04-.37-1.61Zm.88.01c0,.78.21,1.39.63,1.83.42.45.94.67,1.57.67s1.17-.23,1.58-.68c.41-.45.62-1.09.62-1.92,0-.52-.09-.98-.27-1.37-.18-.39-.44-.69-.78-.91-.34-.21-.72-.32-1.15-.32-.6,0-1.12.21-1.56.62-.44.42-.65,1.11-.65,2.08Z" style="fill:#fff; stroke-width:0px;"/><path d="m597.84,28.1v-6.44h1.28l1.53,4.56c.14.42.24.74.31.95.07-.23.19-.58.34-1.03l1.54-4.48h1.15v6.44h-.82v-5.39l-1.87,5.39h-.77l-1.86-5.48v5.48h-.82Z" style="fill:#fff; stroke-width:0px;"/></g></svg>