<?xml version="1.0" encoding="UTF-8"?><svg id="uuid-2063b985-a685-40b4-ac96-8aa6c5fb6faf" xmlns="http://www.w3.org/2000/svg" xmlns:xlink="http://www.w3.org/1999/xlink" viewBox="0 0 341.18 68.4"><a xlink:href="linkedin.com/alorman"><rect x="134.55" width="68.4" height="68.4" rx="14.25" ry="14.25" style="stroke-width:0px;"/><rect x="148.8" y="22.8" width="8.55" height="31.35" style="fill:#fff; stroke-width:0px;"/><ellipse cx="153.07" cy="14.16" rx="4.99" ry="5.03" style="fill:#fff; stroke-width:0px;"/><path d="m191.55,54.15h-8.55v-15.97c0-9.6-11.4-8.87-11.4,0v15.97h-8.55v-31.35h8.55v5.03c3.98-7.37,19.95-7.91,19.95,7.06v19.26Z" style="fill:#fff; stroke-width:0px;"/></a><a xlink:href="github.com/alorman"><path d="m35.6,0C16.38,0,.84,15.66.84,35.02c0,15.48,9.96,28.59,23.77,33.22,1.73.35,2.36-.75,2.36-1.68,0-.81-.06-3.6-.06-6.49-9.67,2.09-11.68-4.17-11.68-4.17-1.55-4.06-3.86-5.1-3.86-5.1-3.17-2.15.23-2.15.23-2.15,3.51.23,5.35,3.6,5.35,3.6,3.11,5.33,8.12,3.83,10.13,2.9.29-2.26,1.21-3.83,2.19-4.7-7.71-.81-15.83-3.83-15.83-17.28,0-3.83,1.38-6.96,3.57-9.39-.35-.87-1.55-4.47.35-9.28,0,0,2.94-.93,9.55,3.6,2.83-.77,5.76-1.16,8.69-1.16,2.94,0,5.93.41,8.69,1.16,6.62-4.52,9.55-3.6,9.55-3.6,1.9,4.81.69,8.41.35,9.28,2.25,2.44,3.57,5.57,3.57,9.39,0,13.45-8.12,16.41-15.89,17.28,1.27,1.1,2.36,3.19,2.36,6.49,0,4.7-.06,8.47-.06,9.63,0,.93.63,2.03,2.36,1.68,13.81-4.64,23.77-17.74,23.77-33.23.06-19.37-15.54-35.02-34.71-35.02Z" style="fill-rule:evenodd; stroke-width:0px;"/></a><path d="m308.84,35.19l4.15,1.31c-.63,2.32-1.69,4.04-3.17,5.16-1.48,1.13-3.36,1.69-5.64,1.69-2.82,0-5.13-.96-6.94-2.89s-2.72-4.55-2.72-7.89c0-3.53.91-6.27,2.73-8.22s4.22-2.93,7.19-2.93c2.59,0,4.7.77,6.32,2.3.97.91,1.69,2.21,2.17,3.91l-4.24,1.01c-.25-1.1-.78-1.97-1.57-2.6-.8-.64-1.76-.95-2.9-.95-1.57,0-2.85.56-3.83,1.69-.98,1.13-1.47,2.96-1.47,5.48,0,2.68.48,4.59,1.45,5.73.96,1.14,2.22,1.71,3.76,1.71,1.14,0,2.12-.36,2.94-1.09.82-.72,1.41-1.86,1.76-3.41Zm13.24,7.79l-7.58-21.2h4.64l5.37,15.69,5.19-15.69h4.54l-7.59,21.2s-4.57,0-4.57,0Zm11.19,25.41h-38.29c-4.37,0-7.91-3.54-7.91-7.91V7.91c0-4.37,3.54-7.91,7.91-7.91h38.29c4.37,0,7.91,3.54,7.91,7.91v52.58c0,4.37-3.54,7.91-7.91,7.91Z" style="fill:#231f20; fill-rule:evenodd; stroke-width:0px;"/></svg>
