<?xml version="1.0" encoding="UTF-8"?><svg id="uuid-e2a1c962-dbf9-417e-9b86-5519069ca9ed" xmlns="http://www.w3.org/2000/svg" viewBox="0 0 607.3 25.47"><rect y=".48" width="164.48" height="24.99" style="stroke-width:0px;"/><g style="isolation:isolate;"><path d="m8.28,19.74l-3.99-15.03h2.04l2.29,9.85c.25,1.03.46,2.06.64,3.08.38-1.61.61-2.53.68-2.78l2.86-10.15h2.4l2.15,7.61c.54,1.89.93,3.66,1.17,5.32.19-.95.44-2.04.75-3.27l2.36-9.66h2l-4.12,15.03h-1.92l-3.17-11.45c-.27-.96-.42-1.54-.47-1.76-.16.69-.3,1.28-.44,1.76l-3.19,11.45h-2.03Z" style="fill:#fff; stroke-width:0px;"/><path d="m24.87,12.42c0-2.5.67-4.45,2.01-5.86,1.34-1.41,3.07-2.12,5.19-2.12,1.39,0,2.64.33,3.75.99,1.11.66,1.96,1.59,2.55,2.77.58,1.19.88,2.53.88,4.03s-.31,2.89-.92,4.09-1.49,2.11-2.61,2.73c-1.13.62-2.34.93-3.65.93-1.42,0-2.68-.34-3.79-1.03-1.11-.68-1.96-1.62-2.53-2.8s-.86-2.43-.86-3.75Zm2.05.03c0,1.81.49,3.24,1.46,4.28.97,1.04,2.2,1.56,3.67,1.56s2.73-.53,3.7-1.58c.97-1.05,1.45-2.55,1.45-4.48,0-1.22-.21-2.29-.62-3.2-.41-.91-1.02-1.62-1.81-2.12-.8-.5-1.69-.75-2.68-.75-1.41,0-2.62.48-3.63,1.45-1.02.97-1.52,2.58-1.52,4.84Z" style="fill:#fff; stroke-width:0px;"/><path d="m41.84,19.74V4.71h6.67c1.34,0,2.36.13,3.06.41.7.27,1.25.75,1.67,1.43.42.68.63,1.44.63,2.27,0,1.07-.35,1.97-1.04,2.7-.69.73-1.76,1.2-3.2,1.39.53.25.93.5,1.2.75.58.53,1.13,1.2,1.65,2l2.62,4.09h-2.5l-1.99-3.13c-.58-.9-1.06-1.59-1.44-2.07-.38-.48-.71-.81-1.01-1-.3-.19-.6-.33-.91-.4-.23-.05-.59-.07-1.11-.07h-2.31v6.68h-1.99Zm1.99-8.4h4.28c.91,0,1.62-.09,2.13-.28.51-.19.9-.49,1.17-.9.27-.41.4-.86.4-1.35,0-.71-.26-1.29-.77-1.75-.52-.46-1.33-.69-2.45-.69h-4.76v4.97Z" style="fill:#fff; stroke-width:0px;"/><path d="m56.89,19.74V4.71h1.99v7.45l7.46-7.45h2.7l-6.31,6.09,6.58,8.94h-2.62l-5.35-7.61-2.46,2.4v5.21h-1.99Z" style="fill:#fff; stroke-width:0px;"/></g><line y1=".48" x2="607.3" y2=".48" style="fill:none; stroke:#000; stroke-miterlimit:10;"/></svg>
